<svg width="14" height="15" viewBox="0 0 14 15" fill="none" xmlns="http://www.w3.org/2000/svg">
<path d="M8.19464 14.773C7.55814 14.773 6.91264 14.704 6.32864 14.574C5.33214 14.352 3.23564 12.7525 2.79214 12.293C2.39114 11.8775 1.31714 10.2825 1.15964 8.985C1.09064 8.42 1.52414 6.7365 2.05464 6.1375C2.15914 6.02 2.26864 5.941 2.38064 5.902C2.35811 5.85053 2.33528 5.7992 2.31214 5.748C1.96714 4.997 1.45614 4.1295 1.00514 3.3635C0.241643 2.0665 -0.0428568 1.5485 0.00514317 1.2535C0.0856432 0.7535 0.495643 0.1765 1.04164 0.0755L1.13814 0.0559998C1.2789 0.0220693 1.42289 0.00329601 1.56764 0C2.04414 0 2.48064 0.272 2.94214 0.8555C3.34164 1.361 3.98864 2.7565 4.53314 4.019C4.50814 3.701 4.51764 3.4355 4.58464 3.2805C4.85464 2.654 5.60764 2.4075 5.83714 2.393L5.89364 2.3915C6.03914 2.3915 6.78364 2.428 7.12864 3.152C7.18364 3.268 7.23614 3.393 7.28464 3.5195C7.34664 3.3045 7.43464 3.117 7.56014 3.01C7.94614 2.682 8.47464 2.512 8.83414 2.613C9.22064 2.7215 9.54614 3.1305 9.66364 3.657C9.71414 3.543 9.77514 3.4505 9.84714 3.3965C10.1966 3.1345 10.8046 3.1065 11.1896 3.3735C11.6596 3.6995 12.7406 5.6525 12.9306 7.3605C13.0861 8.7645 13.2616 11.2735 12.6821 12.3075C12.0801 13.38 10.8486 14.213 9.95914 14.5325C9.52614 14.687 8.89964 14.773 8.19464 14.773ZM2.55964 6.383C2.22764 6.416 1.57714 8.276 1.65564 8.9235C1.79664 10.0875 2.79614 11.5765 3.15214 11.9455C3.57564 12.3845 5.58064 13.8945 6.43664 14.085C6.98614 14.2075 7.59314 14.2725 8.19414 14.2725C8.83364 14.2725 9.41464 14.195 9.78864 14.06C10.4611 13.8185 11.6691 13.087 12.2446 12.0605C12.6186 11.395 12.6871 9.701 12.4326 7.4145C12.2521 5.7855 11.1986 3.9875 10.9041 3.7825C10.6676 3.619 10.2736 3.699 10.1461 3.795C10.0756 3.8755 9.97114 4.3465 9.93064 4.795L9.80514 6.1785L9.44064 4.838C9.44064 4.838 9.27864 4.243 9.17664 3.7715C9.08964 3.373 8.86764 3.14 8.69814 3.093C8.51164 3.04 8.13714 3.1735 7.88364 3.3895C7.74564 3.507 7.64314 4.186 7.63864 4.721L7.61964 6.7995L7.14514 4.7755C7.14314 4.7665 6.94464 3.924 6.67714 3.3655C6.46114 2.9125 5.98614 2.8895 5.89364 2.8895C5.74814 2.8995 5.21564 3.0785 5.04364 3.477C4.92364 3.7565 5.19564 5.215 5.51614 6.4055L5.04214 6.5615C5.02564 6.518 3.28314 2.0905 2.55064 1.164C2.07964 0.568 1.76464 0.499 1.56864 0.499C1.45864 0.499 1.35264 0.521 1.24114 0.5445L1.13364 0.566C0.852643 0.618 0.557143 0.9765 0.498643 1.333C0.503143 1.524 1.02064 2.403 1.43664 3.1095C1.89314 3.8855 2.41114 4.765 2.76664 5.5385C2.85714 5.735 2.94114 5.9395 3.01864 6.1485L3.01964 6.152C3.56214 6.8995 3.83214 9.358 3.86164 9.6405L3.36514 9.698C3.36314 9.6805 3.13414 7.9295 2.57914 6.4015C2.57307 6.3949 2.56656 6.38871 2.55964 6.383Z" fill="black"/>
</svg>
